<?xml version="1.0" encoding="UTF-8"?>
<!DOCTYPE svg PUBLIC "-//W3C//DTD SVG 1.1//EN" "http://www.w3.org/Graphics/SVG/1.1/DTD/svg11.dtd">
<svg xmlns="http://www.w3.org/2000/svg" version="1.1" width="500px" height="500px" style="shape-rendering:geometricPrecision; text-rendering:geometricPrecision; image-rendering:optimizeQuality; fill-rule:evenodd; clip-rule:evenodd" xmlns:xlink="http://www.w3.org/1999/xlink">
<g><path style="opacity:0.972" fill="#010101" d="M 222.5,8.5 C 305.276,3.79362 374.11,32.127 429,93.5C 483.326,161.745 498.659,238.078 475,322.5C 447.672,402.495 393.838,455.661 313.5,482C 230.021,504.288 154.688,488.621 87.5,435C 17.893,371.854 -8.94032,293.687 7,200.5C 23.8609,128.216 64.3609,73.716 128.5,37C 158.088,21.3005 189.421,11.8005 222.5,8.5 Z"/></g>
<g><path style="opacity:1" fill="#fbfbfb" d="M 225.5,26.5 C 304.09,22.8372 368.59,50.8372 419,110.5C 471.505,181.052 481.505,257.385 449,339.5C 419.327,403.838 370.494,446.005 302.5,466C 216.989,485.709 143.156,464.876 81,403.5C 25.2033,339.812 8.20327,266.812 30,184.5C 54.8507,110.316 104.351,60.8159 178.5,36C 194.021,31.4199 209.688,28.2532 225.5,26.5 Z"/></g>
<g><path style="opacity:1" fill="#070707" d="M 282.5,197.5 C 288.993,197.761 295.327,197.761 301.5,197.5C 295.536,203.965 289.369,210.298 283,216.5C 282.617,215.944 282.117,215.611 281.5,215.5C 290.712,237.595 300.212,259.595 310,281.5C 310.667,282.5 310.667,283.5 310,284.5C 298.365,264.702 286.532,245.036 274.5,225.5C 264.833,234.833 255.167,244.167 245.5,253.5C 236.167,244.5 226.833,235.5 217.5,226.5C 205.136,245.7 192.969,265.033 181,284.5C 181.306,282.177 181.972,279.844 183,277.5C 201.06,239.383 218.56,201.05 235.5,162.5C 239.844,167.847 243.177,173.847 245.5,180.5C 239.058,191.448 232.392,202.281 225.5,213C 232.333,219.833 239.167,226.667 246,233.5C 253.211,226.624 260.044,219.457 266.5,212C 260.035,200.903 253.702,189.737 247.5,178.5C 242.866,172.565 239.866,165.898 238.5,158.5C 240.965,151.918 245.632,149.751 252.5,152C 253.333,152.833 254.167,153.667 255,154.5C 261.992,170.799 268.992,187.133 276,203.5C 278.037,201.294 280.203,199.294 282.5,197.5 Z"/></g>
<g><path style="opacity:1" fill="#040404" d="M 302.5,197.5 C 312.634,167.892 333.468,152.559 365,151.5C 395.452,151.545 416.452,165.545 428,193.5C 435.265,217.822 431.931,240.488 418,261.5C 403.958,276.934 386.458,284.267 365.5,283.5C 340.033,283.856 320.867,273.19 308,251.5C 304.986,244.791 302.986,237.791 302,230.5C 301.347,219.484 301.514,208.484 302.5,197.5 Z"/></g>
<g><path style="opacity:1" fill="#050505" d="M 188.5,196.5 C 188.263,197.791 188.596,198.791 189.5,199.5C 193.942,251.576 169.942,279.743 117.5,284C 96.5026,284.5 75.5026,284.667 54.5,284.5C 54.5,283.167 54.5,281.833 54.5,280.5C 62.1247,280.986 68.9581,278.986 75,274.5C 76.8636,237.154 76.8636,199.821 75,162.5C 73.786,160.951 72.286,159.785 70.5,159C 65.3114,157.202 59.9781,156.369 54.5,156.5C 54.5,155.167 54.5,153.833 54.5,152.5C 79.5024,152.083 104.502,151.917 129.5,152C 149.685,153.493 166.519,161.66 180,176.5C 183.711,182.8 186.544,189.467 188.5,196.5 Z"/></g>
<g><path style="opacity:1" fill="#fdfdfd" d="M 357.5,157.5 C 378.526,155.09 393.36,163.424 402,182.5C 410.563,205.821 410.563,229.154 402,252.5C 393.341,272.582 378.174,280.748 356.5,277C 343.849,273.017 335.015,264.851 330,252.5C 321.362,229.162 321.362,205.829 330,182.5C 335.405,169.904 344.572,161.57 357.5,157.5 Z"/></g>
<g><path style="opacity:1" fill="#fdfdfd" d="M 96.5,158.5 C 106.172,158.334 115.839,158.5 125.5,159C 148.724,164.894 162.224,179.728 166,203.5C 171.38,255.281 148.213,279.948 96.5,277.5C 95.2196,237.831 95.2196,198.164 96.5,158.5 Z"/></g>
<g><path style="opacity:1" fill="#c4c4c4" d="M 238.5,158.5 C 239.866,165.898 242.866,172.565 247.5,178.5C 246.833,179.167 246.167,179.833 245.5,180.5C 243.177,173.847 239.844,167.847 235.5,162.5C 236.659,161.26 237.659,159.926 238.5,158.5 Z"/></g>
<g><path style="opacity:1" fill="#fbfbfb" d="M 247.5,178.5 C 253.702,189.737 260.035,200.903 266.5,212C 260.044,219.457 253.211,226.624 246,233.5C 239.167,226.667 232.333,219.833 225.5,213C 232.392,202.281 239.058,191.448 245.5,180.5C 246.167,179.833 246.833,179.167 247.5,178.5 Z"/></g>
<g><path style="opacity:1" fill="#828282" d="M 188.5,196.5 C 196.019,196.175 203.352,196.508 210.5,197.5C 203.152,197.463 196.152,197.796 189.5,198.5C 189.5,198.833 189.5,199.167 189.5,199.5C 188.596,198.791 188.263,197.791 188.5,196.5 Z"/></g>
<g><path style="opacity:1" fill="#858585" d="M 282.5,197.5 C 289.167,196.167 295.833,196.167 302.5,197.5C 302.167,197.5 301.833,197.5 301.5,197.5C 295.327,197.761 288.993,197.761 282.5,197.5 Z"/></g>
<g><path style="opacity:1" fill="#040404" d="M 189.5,198.5 C 196.152,197.796 203.152,197.463 210.5,197.5C 212.348,199.516 214.015,201.683 215.5,204C 214.444,207.293 212.777,210.126 210.5,212.5C 206.822,207.638 202.488,203.805 197.5,201C 201.369,205.037 205.369,208.87 209.5,212.5C 210.999,215.007 210.332,216.174 207.5,216C 201.631,209.964 195.631,204.13 189.5,198.5 Z"/></g>
<g><path style="opacity:1" fill="#838383" d="M 210.5,212.5 C 210.167,212.5 209.833,212.5 209.5,212.5C 205.369,208.87 201.369,205.037 197.5,201C 202.488,203.805 206.822,207.638 210.5,212.5 Z"/></g>
<g><path style="opacity:1" fill="#898989" d="M 281.5,215.5 C 279.21,212.923 278.044,209.923 278,206.5C 278.896,209.14 280.396,211.307 282.5,213C 281.748,213.671 281.414,214.504 281.5,215.5 Z"/></g>
<g><path style="opacity:1" fill="#c6c6c6" d="M 247.5,247.5 C 247.5,247.833 247.5,248.167 247.5,248.5C 246.749,249.573 245.749,249.74 244.5,249C 235.986,240.652 227.652,232.152 219.5,223.5C 220.002,222.479 220.668,222.312 221.5,223C 229.755,231.759 238.421,239.926 247.5,247.5 Z"/></g>
<g><path style="opacity:1" fill="#959595" d="M 247.5,248.5 C 247.5,248.167 247.5,247.833 247.5,247.5C 255.298,239.202 263.298,231.035 271.5,223C 272.167,222.333 272.833,222.333 273.5,223C 264.965,231.702 256.298,240.202 247.5,248.5 Z"/></g>
<g><path style="opacity:1" fill="#0b0b0b" d="M 219.5,288.5 C 225.925,288.96 232.258,289.96 238.5,291.5C 238.826,295.884 238.492,300.217 237.5,304.5C 235.044,301.542 232.378,298.709 229.5,296C 225.292,293.35 220.959,293.017 216.5,295C 212.5,299 212.5,303 216.5,307C 225.276,310.8 233.11,315.967 240,322.5C 240.494,331.648 236.327,337.815 227.5,341C 220.07,341.779 212.737,341.279 205.5,339.5C 205.5,335.167 205.5,330.833 205.5,326.5C 209.951,330.094 214.617,333.594 219.5,337C 224.808,338.421 228.975,336.921 232,332.5C 233.293,328.418 232.126,325.251 228.5,323C 222.5,319.667 216.5,316.333 210.5,313C 204.475,308.014 203.975,302.514 209,296.5C 212.299,293.449 215.799,290.782 219.5,288.5 Z"/></g>
<g><path style="opacity:1" fill="#0b0b0b" d="M 285.5,288.5 C 306.696,290.206 315.196,301.54 311,322.5C 303.785,337.858 291.951,343.691 275.5,340C 266.373,334.92 262.04,327.086 262.5,316.5C 262.732,307.074 266.732,299.574 274.5,294C 278.259,292.121 281.925,290.287 285.5,288.5 Z"/></g>
<g><path style="opacity:1" fill="#0b0b0b" d="M 405.5,288.5 C 411.925,288.96 418.258,289.96 424.5,291.5C 424.826,295.884 424.492,300.217 423.5,304.5C 421.044,301.542 418.378,298.709 415.5,296C 411.292,293.35 406.959,293.017 402.5,295C 398.5,299 398.5,303 402.5,307C 411.276,310.8 419.11,315.967 426,322.5C 426.494,331.648 422.327,337.815 413.5,341C 406.07,341.779 398.737,341.279 391.5,339.5C 391.5,335.167 391.5,330.833 391.5,326.5C 395.951,330.094 400.617,333.594 405.5,337C 410.808,338.421 414.975,336.921 418,332.5C 419.293,328.418 418.126,325.251 414.5,323C 408.5,319.667 402.5,316.333 396.5,313C 390.475,308.014 389.975,302.514 395,296.5C 398.299,293.449 401.799,290.782 405.5,288.5 Z"/></g>
<g><path style="opacity:1" fill="#070707" d="M 63.5,301.5 C 63.0133,300.527 62.5133,299.527 62,298.5C 61.1737,310.674 61.3403,322.674 62.5,334.5C 64.4346,335.81 66.4346,337.143 68.5,338.5C 68.2907,339.086 67.9574,339.586 67.5,340C 62.467,340.829 57.467,340.662 52.5,339.5C 53.8333,337.5 55.5,335.833 57.5,334.5C 58.666,321.846 58.8326,309.18 58,296.5C 56.3333,295.5 54.6667,294.5 53,293.5C 52.5172,292.552 52.3505,291.552 52.5,290.5C 57.5,290.5 62.5,290.5 67.5,290.5C 72.1674,303.663 77.334,316.663 83,329.5C 88.0689,316.793 93.2356,304.126 98.5,291.5C 103.5,290.167 108.5,290.167 113.5,291.5C 111.992,293.507 110.158,295.174 108,296.5C 107.5,309.829 107.333,323.163 107.5,336.5C 109.5,336.833 111.5,337.167 113.5,337.5C 113.5,338.5 113.5,339.5 113.5,340.5C 106.8,340.83 100.134,340.497 93.5,339.5C 94.8587,337.308 96.6921,335.641 99,334.5C 99.6667,322.833 99.6667,311.167 99,299.5C 94.1376,311.087 89.4709,322.754 85,334.5C 84.2054,337.115 82.7054,339.115 80.5,340.5C 79.3527,340.182 78.5194,339.516 78,338.5C 73.1509,326.141 68.3176,313.808 63.5,301.5 Z"/></g>
<g><path style="opacity:1" fill="#0a0a0a" d="M 156.5,289.5 C 157.496,289.414 158.329,289.748 159,290.5C 164.451,304.862 170.285,319.029 176.5,333C 178.023,334.854 179.856,336.354 182,337.5C 182.483,338.448 182.649,339.448 182.5,340.5C 175.8,340.83 169.134,340.497 162.5,339.5C 164.194,337.139 166.194,335.139 168.5,333.5C 166.962,329.593 165.296,325.76 163.5,322C 156.5,321.333 149.5,321.333 142.5,322C 139.35,325.92 138.016,330.253 138.5,335C 141.432,336.145 144.432,336.978 147.5,337.5C 147.5,338.5 147.5,339.5 147.5,340.5C 140.8,340.83 134.134,340.497 127.5,339.5C 129.167,337.167 131.167,335.167 133.5,333.5C 139.058,320.05 144.892,306.716 151,293.5C 152.812,292.023 154.645,290.69 156.5,289.5 Z"/></g>
<g><path style="opacity:1" fill="#060606" d="M 366.5,325.5 C 366.783,326.289 367.283,326.956 368,327.5C 368.825,316.659 368.659,305.992 367.5,295.5C 364.63,294.922 362.963,293.255 362.5,290.5C 367.544,290.173 372.544,290.506 377.5,291.5C 376.167,293.5 374.5,295.167 372.5,296.5C 371.501,311.152 371.167,325.818 371.5,340.5C 370.022,340.762 368.689,340.429 367.5,339.5C 357.667,327.167 347.833,314.833 338,302.5C 337.333,313.167 337.333,323.833 338,334.5C 346.829,338.867 346.162,340.867 336,340.5C 327.107,341.259 326.274,339.259 333.5,334.5C 334.666,321.846 334.833,309.18 334,296.5C 332.333,295.5 330.667,294.5 329,293.5C 328.517,292.552 328.351,291.552 328.5,290.5C 332.182,290.335 335.848,290.501 339.5,291C 348.333,302.662 357.333,314.162 366.5,325.5 Z"/></g>
<g><path style="opacity:1" fill="#fbfbfb" d="M 281.5,294.5 C 292.693,293.012 299.86,297.678 303,308.5C 303.861,314.585 303.527,320.585 302,326.5C 296.927,336.191 289.427,338.691 279.5,334C 272.136,326.738 269.303,317.905 271,307.5C 272.534,301.477 276.034,297.144 281.5,294.5 Z"/></g>
<g><path style="opacity:1" fill="#b9b9b9" d="M 367.5,295.5 C 368.659,305.992 368.825,316.659 368,327.5C 367.283,326.956 366.783,326.289 366.5,325.5C 367.494,315.681 367.827,305.681 367.5,295.5 Z"/></g>
<g><path style="opacity:1" fill="#f7f7f7" d="M 161.5,317.5 C 155.833,318.833 150.167,318.833 144.5,317.5C 146.849,310.619 149.682,303.952 153,297.5C 156.318,303.952 159.151,310.619 161.5,317.5 Z"/></g>
<g><path style="opacity:1" fill="#9d9d9d" d="M 63.5,301.5 C 62.5054,312.321 62.1721,323.321 62.5,334.5C 61.3403,322.674 61.1737,310.674 62,298.5C 62.5133,299.527 63.0133,300.527 63.5,301.5 Z"/></g>
<g><path style="opacity:1" fill="#9b9b9b" d="M 144.5,317.5 C 150.167,318.833 155.833,318.833 161.5,317.5C 162.043,317.56 162.376,317.893 162.5,318.5C 156.167,319.833 149.833,319.833 143.5,318.5C 143.624,317.893 143.957,317.56 144.5,317.5 Z"/></g>
</svg>
